<?xml version="1.0" standalone="no"?><!DOCTYPE svg PUBLIC "-//W3C//DTD SVG 1.1//EN" "http://www.w3.org/Graphics/SVG/1.1/DTD/svg11.dtd"><svg class="icon" width="200px" height="200.00px" viewBox="0 0 1024 1024" version="1.1" xmlns="http://www.w3.org/2000/svg"><path fill="#333333" d="M770.133333 917.333333h-140.8c-25.6 0-44.8-19.2-44.8-44.8V618.666667s0-2.133333-2.133333-2.133334h-140.8c-2.133333 0-2.133333 0-2.133333 2.133334v253.866666c0 25.6-19.2 44.8-44.8 44.8h-140.8c-25.6 0-44.8-19.2-44.8-44.8V490.666667s0-2.133333-2.133334-2.133334H151.466667c-19.2 0-36.266667-10.666667-42.666667-29.866666-6.4-17.066667-2.133333-36.266667 12.8-49.066667L482.133333 117.333333c17.066667-14.933333 40.533333-14.933333 57.6 0l360.533334 294.4c14.933333 12.8 19.2 32 12.8 49.066667-6.4 17.066667-23.466667 29.866667-42.666667 29.866667h-53.333333c-2.133333 0-2.133333 0-2.133334 2.133333V874.666667c0 23.466667-19.2 42.666667-44.8 42.666666zM441.6 573.866667h140.8c25.6 0 44.8 19.2 44.8 44.8v253.866666s0 2.133333 2.133333 2.133334h140.8c2.133333 0 2.133333 0 2.133334-2.133334V490.666667c0-25.6 19.2-44.8 44.8-44.8h53.333333s2.133333 0 2.133333-2.133334L514.133333 149.333333h-4.266666L149.333333 443.733333c0 2.133333 2.133333 2.133333 2.133334 2.133334h53.333333c25.6 0 44.8 19.2 44.8 44.8v381.866666s0 2.133333 2.133333 2.133334h140.8c2.133333 0 2.133333 0 2.133334-2.133334V618.666667c2.133333-25.6 21.333333-44.8 46.933333-44.8z"  /></svg>